<svg class="svg-image" role="img" style="width:inherit;height:inherit;line-height:inherit;color:inherit;" xmlns="http://www.w3.org/2000/svg" viewBox="0 0 200 200"><path d="M120 140c-22.1 0-40-17.9-40-40s17.9-40 40-40s40 17.9 40 40s-17.9 40-40 40zm0-70c-16.5 0-30 13.5-30 30s13.5 30 30 30s30-13.5 30-30s-13.5-30-30-30z"></path><path d="M165 160H35c-8.3 0-15-6.7-15-15V65c0-8.3 6.7-15 15-15h46.9l5.8-11.7c2.5-5 7.8-8.3 13.4-8.3h37.6c5.8 0 11 3.2 13.6 8.3l5.8 11.7h6.9c8.3 0 15 6.7 15 15v80c0 8.3-6.7 15-15 15zm-95-10h95c2.8 0 5-2.2 5-5V65c0-2.8-2.2-5-5-5h-10c-1.9 0-3.6-1.1-4.5-2.8l-7.2-14.5c-.8-1.7-2.6-2.7-4.6-2.7h-37.6c-1.9 0-3.6 1.1-4.4 2.7l-7.2 14.5c-.9 1.7-2.6 2.8-4.5 2.8H70v90zM35 60c-2.8 0-5 2.2-5 5v80c0 2.8 2.2 5 5 5h25V60H35zm69.2 39.7c-2.6-.9-4-3.8-3-6.4c2-5.7 6.5-10.2 12.2-12.1c2.6-.9 5.5.5 6.4 3.1c.9 2.6-.5 5.5-3.1 6.4c-2.8 1-5 3.2-6 6.1c-1 2.5-3.9 3.8-6.5 2.9z"></path></svg>