<svg class="svg-image" role="img" style="width:inherit;height:inherit;line-height:inherit;color:inherit;" xmlns="http://www.w3.org/2000/svg" viewBox="0 0 200 200"><path d="M160.6 180H39.4c-1.6 0-3.2-.8-4.1-2.1c-8-11.5-6.8-32.8 2.2-41.5c3.9-3.8 23.8-10.5 35.6-14C58.8 108.1 50 95.4 50 70.9C50 38.6 68.2 20 100 20s50 18.6 50 50.9c0 23.8-8.2 36.7-23.1 51.5c11.8 3.5 31.6 10.2 35.6 14c9.1 8.7 10.3 30 2.3 41.5c-1 1.3-2.6 2.1-4.2 2.1zM42.3 170h115.5c4-8.3 2.4-21.8-2.1-26.3c-3.6-2.8-31.2-12.1-38.9-13.8c-3.5-.8-5.1-4.9-3-7.8c7.9-10.8 26.3-19.2 26.3-51.2c0-18.7-6.9-40.9-40-40.9S60 52.2 60 70.9c0 31.9 18.4 40.3 26.3 51.2c2.1 2.9.5 7.1-3 7.8c-7.7 1.6-35.3 10.9-38.9 13.7c-4.6 4.5-6.1 18.1-2.1 26.4zm2.2-26.4z"></path></svg>